<mxfile host="app.diagrams.net" modified="2024-03-04T09:23:50.048Z" agent="Mozilla/5.0 (Windows NT 10.0; Win64; x64) AppleWebKit/537.36 (KHTML, like Gecko) Chrome/121.0.0.0 Safari/537.36" etag="hs9-sxTddq_uHNzXX5Ha" version="24.0.1" type="github">
  <diagram id="C5RBs43oDa-KdzZeNtuy" name="Page-1">
    <mxGraphModel dx="1195" dy="1799" grid="1" gridSize="10" guides="1" tooltips="1" connect="1" arrows="1" fold="1" page="1" pageScale="1" pageWidth="827" pageHeight="1169" math="0" shadow="0">
      <root>
        <mxCell id="WIyWlLk6GJQsqaUBKTNV-0" />
        <mxCell id="WIyWlLk6GJQsqaUBKTNV-1" parent="WIyWlLk6GJQsqaUBKTNV-0" />
        <mxCell id="P6T2kwmTpYr2gfWhr5WO-3" value="" style="edgeStyle=orthogonalEdgeStyle;rounded=0;orthogonalLoop=1;jettySize=auto;html=1;exitX=0.5;exitY=1;exitDx=0;exitDy=0;" parent="WIyWlLk6GJQsqaUBKTNV-1" source="P6T2kwmTpYr2gfWhr5WO-8" target="P6T2kwmTpYr2gfWhr5WO-2" edge="1">
          <mxGeometry relative="1" as="geometry" />
        </mxCell>
        <mxCell id="P6T2kwmTpYr2gfWhr5WO-5" value="" style="edgeStyle=orthogonalEdgeStyle;rounded=0;orthogonalLoop=1;jettySize=auto;html=1;" parent="WIyWlLk6GJQsqaUBKTNV-1" source="P6T2kwmTpYr2gfWhr5WO-2" target="P6T2kwmTpYr2gfWhr5WO-4" edge="1">
          <mxGeometry relative="1" as="geometry" />
        </mxCell>
        <mxCell id="P6T2kwmTpYr2gfWhr5WO-2" value="" style="rhombus;whiteSpace=wrap;html=1;strokeColor=#808080;rounded=1;fillStyle=solid;glass=0;shadow=1;gradientColor=none;strokeWidth=1;" parent="WIyWlLk6GJQsqaUBKTNV-1" vertex="1">
          <mxGeometry x="240" y="170" width="80" height="80" as="geometry" />
        </mxCell>
        <mxCell id="P6T2kwmTpYr2gfWhr5WO-4" value="" style="whiteSpace=wrap;html=1;strokeColor=#808080;rounded=1;fillStyle=solid;glass=0;shadow=1;gradientColor=none;strokeWidth=1;" parent="WIyWlLk6GJQsqaUBKTNV-1" vertex="1">
          <mxGeometry x="160" y="280" width="240" height="60" as="geometry" />
        </mxCell>
        <mxCell id="P6T2kwmTpYr2gfWhr5WO-6" value="" style="rounded=1;whiteSpace=wrap;html=1;fillColor=none;fillStyle=solid;glass=0;shadow=0;textShadow=1;gradientColor=none;strokeColor=default;strokeWidth=1;dashed=1;align=right;verticalAlign=top;spacingRight=12;fontFamily=JetBrains Mono;fontSource=https%3A%2F%2Ffonts.googleapis.com%2Fcss%3Ffamily%3DJetBrains%2BMono;fontSize=12;fontColor=default;" parent="WIyWlLk6GJQsqaUBKTNV-1" vertex="1">
          <mxGeometry x="160" y="-80" width="240" height="40" as="geometry" />
        </mxCell>
        <mxCell id="P6T2kwmTpYr2gfWhr5WO-9" value="" style="endArrow=classic;html=1;rounded=0;exitX=0.5;exitY=1;exitDx=0;exitDy=0;entryX=0.5;entryY=0;entryDx=0;entryDy=0;" parent="WIyWlLk6GJQsqaUBKTNV-1" source="P6T2kwmTpYr2gfWhr5WO-6" target="P6T2kwmTpYr2gfWhr5WO-8" edge="1">
          <mxGeometry width="50" height="50" relative="1" as="geometry">
            <mxPoint x="430" y="120" as="sourcePoint" />
            <mxPoint x="480" y="70" as="targetPoint" />
          </mxGeometry>
        </mxCell>
        <mxCell id="Q2QhKaODeLm1M-LhoPyh-0" value="" style="group" vertex="1" connectable="0" parent="WIyWlLk6GJQsqaUBKTNV-1">
          <mxGeometry x="160" width="240" height="120" as="geometry" />
        </mxCell>
        <mxCell id="P6T2kwmTpYr2gfWhr5WO-0" value="Test" style="rounded=1;whiteSpace=wrap;html=1;fillStyle=solid;glass=0;shadow=0;textShadow=0;strokeWidth=1;strokeColor=default;verticalAlign=top;align=right;spacingRight=12;fontFamily=JetBrains Mono;fontSource=https%3A%2F%2Ffonts.googleapis.com%2Fcss%3Ffamily%3DJetBrains%2BMono;fillOpacity=100;treeFolding=0;treeMoving=0;fillColor=none;dashed=1;" parent="Q2QhKaODeLm1M-LhoPyh-0" vertex="1">
          <mxGeometry width="240" height="120" as="geometry" />
        </mxCell>
        <mxCell id="P6T2kwmTpYr2gfWhr5WO-8" value="save()" style="rounded=1;whiteSpace=wrap;fillColor=#fff2cc;strokeColor=#d6b656;labelBackgroundColor=none;labelBorderColor=none;fontFamily=JetBrains Mono;fontStyle=0;fontSource=https%3A%2F%2Ffonts.googleapis.com%2Fcss%3Ffamily%3DJetBrains%2BMono;shadow=0;textShadow=0;html=1;glass=0;horizontal=1;verticalAlign=middle;" parent="Q2QhKaODeLm1M-LhoPyh-0" vertex="1">
          <mxGeometry x="10" y="40" width="220" height="60" as="geometry" />
        </mxCell>
      </root>
    </mxGraphModel>
  </diagram>
</mxfile>
